<?xml version="1.0" encoding="utf-8"?>
<!-- Generator: Adobe Illustrator 22.1.0, SVG Export Plug-In . SVG Version: 6.00 Build 0)  -->
<svg version="1.1" id="图层_1" xmlns="http://www.w3.org/2000/svg" xmlns:xlink="http://www.w3.org/1999/xlink" x="0px" y="0px"
	 viewBox="0 0 624 138" style="enable-background:new 0 0 624 138;" xml:space="preserve">
<style type="text/css">
	.st0{enable-background:new    ;}
	.st1{fill:#5589EF;}
</style>
<g class="st0">
	<path class="st1" d="M244.2,13.9l-44.3,95c-3.2,6.9-8.5,10.3-16,10.3c-7.3,0-12.6-3.4-15.8-10.3l-13-27.7l-13,27.7
		c-3.3,6.9-8.6,10.3-15.8,10.3c-7.4,0-12.8-3.4-16-10.3L66,13.9h25.3L124,83.9c0.4,1,1.1,1.4,2.2,1.4c0.9,0,1.6-0.5,2-1.4l14.2-30.1
		l-18.8-40H149l6,12.7l6-12.7h25.4l-18.7,40l14,30.1c0.5,1,1.2,1.4,2,1.4c1,0,1.7-0.5,2.2-1.4l32.8-70.1H244.2z"/>
</g>
<g class="st0">
	<path class="st1" d="M344,113.8h-14.4c-8.2,0-14.2-4.1-18.1-12.2c-4.1,8.1-9.1,12.2-15,12.2h-23.7c-5.8,0-10.5-1.9-14.2-5.6
		c-3.7-3.7-5.6-8.6-5.6-14.7V63.4c0-6.1,1.9-11,5.8-14.9c3.7-3.8,8.4-5.8,14.1-5.8h21.4c9.8,0,15.5,3.2,17.1,9.6v-9.6h26.9v52.2h5.8
		V113.8z M311.4,93.9V62.7H277v31.2H311.4z"/>
	<path class="st1" d="M390.9,113.8h-24.5V16h24.5V113.8z"/>
	<path class="st1" d="M450.6,113.8h-24.5V16h24.5V113.8z"/>
	<path class="st1" d="M506.9,32.2h-24.2V15.7h24.2V32.2z M506.9,113.8h-24.2v-69h24.2V113.8z"/>
</g>
<g class="st0">
	<path class="st1" d="M609.3,113.9h-51.8c-5.9,0-10.7-1.9-14.4-5.6c-3.7-3.8-5.6-8.8-5.6-14.9V63.5c0-5.8,2-10.7,6.1-14.7
		c3.9-4.2,8.9-6.2,14.7-6.2h51v19.7h-44.8v31.8h44.8V113.9z"/>
</g>
<g class="st0">
	<path class="st1" d="M42.4,32.2H18.2V15.7h24.2V32.2z M42.4,113.8H18.2v-69h24.2V113.8z"/>
</g>
</svg>
